<svg id="Layer_1" data-name="Layer 1" xmlns="http://www.w3.org/2000/svg" viewBox="0 0 196.52 78.42"><defs><style>.cls-1{fill:#f5f5f5;}.cls-2{fill:none;stroke:#ececec;stroke-miterlimit:10;}</style></defs><title>texto-majus-gris</title><rect class="cls-1" width="196.52" height="78.42"/><path class="cls-2" d="M37.17,58.78H28.38V18.51h-.14l-7.3,32H15.7l-7.29-32H8.24V58.78H0V.78H11.48l6.88,31.15h.16L25.32.78H37.17Z" transform="translate(11.15 9.43)"/><path class="cls-2" d="M76.77,58.78h-9L65.92,45.65H56.24l-1.9,13.17H45.53l10-58H66.75ZM61,13.21,57.38,37.65h7.38L61.24,13.21Z" transform="translate(11.15 9.43)"/><path class="cls-2" d="M101.05,45.27q0,7-3.35,10.69T87.55,59.65a22.5,22.5,0,0,1-5.89-.75l.5-8a14.68,14.68,0,0,0,4.31.66A5.74,5.74,0,0,0,90.9,50c.91-1,1.37-2.67,1.37-4.93V.78h8.78Z" transform="translate(11.15 9.43)"/><path class="cls-2" d="M138.84,45.77q0,6.72-3.61,10.28t-10.06,3.6q-6.3,0-9.91-3.56t-3.6-10.28V.81h8.45V45.55c0,3.87,1.67,5.81,5,5.8s5-1.94,5-5.8V.78h8.78Z" transform="translate(11.15 9.43)"/><path class="cls-2" d="M169.83,3.35q3.4,3.41,3.41,9.61v1.49l-8.46.83V13.12a5.46,5.46,0,0,0-1.17-3.77,4.91,4.91,0,0,0-6.62,0,5.46,5.46,0,0,0-1.16,3.77v.75a9.63,9.63,0,0,0,1.57,5.18,29.14,29.14,0,0,0,5.8,6.09,40.52,40.52,0,0,1,8.54,9.28,17.84,17.84,0,0,1,2.5,9.28v2.95q0,6.21-3.52,9.61t-10.09,3.39q-6.54,0-10.07-3.4T147,46.65v-3.9l8.45-.82v4.14c0,3.65,1.67,5.48,5,5.47s5-1.83,5-5.47V44.16a9.6,9.6,0,0,0-1.66-5.34,31.88,31.88,0,0,0-6-6.17,38.82,38.82,0,0,1-8.37-9.16,17.94,17.94,0,0,1-2.4-9.24V13q0-6.22,3.4-9.62c2.26-2.26,5.5-3.39,9.69-3.39S167.56,1.08,169.83,3.35Z" transform="translate(11.15 9.43)"/></svg>